HIERARCHY
ROOT BEC
{
	OFFSET 0 0 0
	CHANNELS 6 Xposition Yposition Zposition Zrotation Xrotation Yrotation
	JOINT ULW
	{
		OFFSET 0 67.309 48.741
		CHANNELS 3 Zrotation Xrotation Yrotation
		JOINT OLW
		{
			OFFSET 0 -36.7625 98.427
			CHANNELS 3 Zrotation Xrotation Yrotation
			JOINT UBW
			{
				OFFSET 0 20.1596 118.586
				CHANNELS 3 Zrotation Xrotation Yrotation
				JOINT OBW
				{
					OFFSET 0 43.7583 145.861
					CHANNELS 3 Zrotation Xrotation Yrotation
					JOINT UHW
					{
						OFFSET 0 22.5408 128.073
						CHANNELS 3 Zrotation Xrotation Yrotation
						JOINT BRK
						{
							OFFSET 0 -14.8338 65.376
							CHANNELS 3 Zrotation Xrotation Yrotation
							JOINT SB.R
							{
								OFFSET -25 -102.186 0
								CHANNELS 3 Zrotation Xrotation Yrotation
								JOINT OA.R
								{
									OFFSET -156.584 62 -27.6101
									CHANNELS 3 Zrotation Xrotation Yrotation
									JOINT UA.R
									{
										OFFSET -288.549 0 -50.8789
										CHANNELS 3 Zrotation Xrotation Yrotation
										JOINT HA.R
										{
											OFFSET -286.244 0 -50.4726
											CHANNELS 3 Zrotation Xrotation Yrotation
											JOINT FI.R
											{
												OFFSET -104.724 0 -18.4657
												CHANNELS 3 Zrotation Xrotation Yrotation
												End Site
												{
													OFFSET -116.359 0 -20.5172
												}
											}
										}
									}
								}
							}
							JOINT SB.L
							{
								OFFSET 25 -102.186 0
								CHANNELS 3 Zrotation Xrotation Yrotation
								JOINT OA.L
								{
									OFFSET 156.584 62 -27.6101
									CHANNELS 3 Zrotation Xrotation Yrotation
									JOINT UA.L
									{
										OFFSET 288.549 0 -50.8789
										CHANNELS 3 Zrotation Xrotation Yrotation
										JOINT HA.L
										{
											OFFSET 286.244 0 -50.4726
											CHANNELS 3 Zrotation Xrotation Yrotation
											JOINT FI.L
											{
												OFFSET 104.724 0 -18.4657
												CHANNELS 3 Zrotation Xrotation Yrotation
												End Site
												{
													OFFSET 116.359 0 -20.5172
												}
											}
										}
									}
								}
							}
						}
						JOINT OHW
						{
							OFFSET 0 -37.281 164.96
							CHANNELS 3 Zrotation Xrotation Yrotation
							JOINT KO
							{
								OFFSET 0 -24.3035 83.632
								CHANNELS 3 Zrotation Xrotation Yrotation
								JOINT SEH
								{
									OFFSET 0 -111.809 39.7332
									CHANNELS 3 Zrotation Xrotation Yrotation
									End Site
									{
										OFFSET 0 -476.858 -150.353
									}
								}
							}
						}
					}
				}
			}
		}
	}
	JOINT OS.R
	{
		OFFSET -94 0 0
		CHANNELS 3 Zrotation Xrotation Yrotation
		JOINT US.R
		{
			OFFSET 0 0 -476.386
			CHANNELS 3 Zrotation Xrotation Yrotation
			JOINT FU.R
			{
				OFFSET 0 0 -468.613
				CHANNELS 3 Zrotation Xrotation Yrotation
				JOINT FB.R
				{
					OFFSET 0 -167.938 -79.953
					CHANNELS 3 Zrotation Xrotation Yrotation
					End Site
					{
						OFFSET 0 -82.786 0
					}
				}
			}
		}
	}
	JOINT OS.L
	{
		OFFSET 94 0 0
		CHANNELS 3 Zrotation Xrotation Yrotation
		JOINT US.L
		{
			OFFSET 0 0 -476.386
			CHANNELS 3 Zrotation Xrotation Yrotation
			JOINT FU.L
			{
				OFFSET 0 0 -468.613
				CHANNELS 3 Zrotation Xrotation Yrotation
				JOINT FB.L
				{
					OFFSET 0 -167.938 -79.953
					CHANNELS 3 Zrotation Xrotation Yrotation
					End Site
					{
						OFFSET 0 -82.786 0
					}
				}
			}
		}
	}
}
MOTION
Frames: 9
Frame Time: 0.4
1475.79 2480.4 918.097 -91.001 3.72436 3.758 -0 -7.95139e-16 0.0572958 -0 -0.0572958 0.0572958 -0.973983 1.80805 -1.8603 -2.58089 3.0511 -1.5258 -3.5743 -6.40869 -1.26056 1.20591e-15 -3.18055e-15 -7.45443e-16 -4.18259 -3.18055e-15 2.52101 42.0735 16.0479 -65.0408 24.5334 -4.18744 0.910847 2.38542e-15 9.54166e-15 6.36111e-15 2.38542e-15 9.54166e-15 6.36111e-15 16.2605 0.0561247 1.60429 -23.1507 9.76449 65.9718 -29.2465 -4.92375 -1.28541 -9.54166e-15 -7.95139e-16 9.54166e-15 -9.54166e-15 -7.95139e-16 9.54166e-15 5.21602 -2.44894 -1.61759 7.27594 1.08346 -1.46682 1.18028e-16 -1.04362e-15 1.19271e-15 -3.38971 -4.6358 -2.16833 -5.15237 8.21771 0.738404 -1.02226e-16 13.5218 0.171887 1.98785e-15 -6.36111e-15 -7.95139e-16 -0.803199 -4.30996 -3.21194 8.97076 4.86746 -0.767413 -6.8162e-17 -4.35448 1.44536e-15 9.54334e-16 0.0572958 1.3418e-15
1477.58 2472.07 929.969 -89.1058 1.04073 0.591 1.53748e-16 0 0.0572958 1.7549e-16 -1.98785e-16 -0.114592 -1.77724 2.01327 -0.22416 -3.619 4.14596 -0.197286 -2.8748 -4.82968 -0.930652 1.00945e-16 -0.0572958 -5.96354e-16 -0.171887 7.95139e-16 0.114592 33.4415 12.0016 -65.7421 19.0932 -3.30103 0.555312 8.74653e-15 5.96354e-15 -1.27222e-14 8.74653e-15 5.96354e-15 -1.27222e-14 9.83786 -0.167101 3.5524 -22.4807 8.79825 63.6079 -26.454 -4.54936 -1.05618 -1.59028e-14 -7.95139e-16 1.59028e-14 -1.59028e-14 -7.95139e-16 1.59028e-14 10.2096 2.68195 -0.94856 14.313 4.57939 -1.52169 4.37326e-15 6.36111e-15 -3.97569e-15 4.76385 -3.51645 1.27026 -19.1974 15.1385 5.19561 -3.7007e-15 -6.41713 0.229183 -2.98181e-15 -0.286479 -7.95149e-16 -9.93818 -4.36661 0.689782 12.9775 9.99935 -2.29148 5.33409e-15 6.58901 0.0572958 4.76462e-15 3.18055e-15 -7.01958e-16
1485.57 2479.5 932.844 -89.812 3.23354 2.01 -0.0303987 0.189666 0.0181617 -0.000455492 0.010733 -0.0161802 -1.31087 1.68203 -0.766325 -2.78425 3.3642 -0.633678 -2.45933 -5.90274 -1.02733 0.000730497 -0.0973488 0.000287804 -1.07179 -0.00191419 1.39275 33.1875 12.9608 -67.211 20.7374 -3.42141 0.703882 0.00351091 0.0199114 -6.10055e-07 6.55186e-11 3.71533e-10 6.36111e-15 9.38667 0.0595016 4.58823 -20.8726 10.1381 63.1146 -27.7031 -4.872 -1.24054 0.00023271 -0.00131977 2.68015e-09 -1.1546e-10 6.54808e-10 -3.18055e-15 9.66272 2.09368 -3.10292 13.5825 4.08083 -2.98493 0.00592888 -0.0669901 0.00106789 2.62078 -6.07745 -0.246409 -19.7552 12.5935 4.32826 0.0155423 -7.39023 1.03118 -0.00164119 -0.339318 -0.000176509 3.00225 -8.01032 -1.50619 5.59404 12.2872 -0.629309 -0.0510019 0.919394 0.146873 -0.00182842 0.0518644 0.00510026
1488.27 2481.03 937.548 -89.9075 3.92006 1.97 -0.016157 0.218005 0.023442 -0.00105742 -0.0057136 0.0157634 -1.08369 1.61163 -0.728038 -2.24828 3.12436 -0.601836 -1.9034 -6.2342 -0.964431 0.000507209 -0.0868948 0.00361834 -0.810751 -0.00385708 2.58304 32.5592 12.5524 -69.185 20.0382 -2.97822 0.760509 0.00159531 0.00904744 -1.25956e-07 -2.93838e-10 -1.6664e-09 6.36111e-15 7.48262 0.177353 6.49146 -19.3775 11.1119 61.5656 -28.119 -5.07427 -1.29942 0.000813223 -0.00461202 3.27301e-08 -1.42966e-10 8.10805e-10 -1.27222e-14 10.2206 3.24051 -3.93018 14.3614 4.79658 -3.72035 0.00247947 -0.0146022 0.0010376 4.87269 -6.63903 0.0245006 -23.1923 11.6289 4.48959 -0.0152784 -10.3638 0.744104 -0.00269101 -0.465501 -0.0100094 8.23334 -10.2095 -1.38761 1.61656 14.9506 0.093993 -0.0693685 -1.92474 0.225365 -0.00164514 0.0477316 0.00457523
1488.39 2481.67 940.747 -90.201 4.55982 1.76 0.0015036 0.164769 0.058979 -0.00134404 -0.0463409 0.0548168 -0.710076 1.61469 -0.677312 -1.43673 2.89052 -0.558095 -1.24423 -6.55874 -0.767835 -0.000334307 -0.00920501 0.00733318 -0.866504 -0.00483249 4.67632 34.3085 11.96 -71.8992 19.1347 -2.5235 0.794443 0.000630294 0.00357457 -1.96614e-08 1.58585e-10 8.99397e-10 1.27222e-14 5.93274 0.257047 8.4778 -17.8097 12.1897 59.8721 -28.8727 -5.32389 -1.38906 0.00187748 -0.0106477 1.74453e-07 -1.19656e-10 6.7867e-10 -0 10.0395 4.59512 -4.17791 14.1284 5.72853 -3.98653 -0.000412893 0.0172668 0.000525155 7.9338 -6.5311 0.584159 -25.4499 9.84007 4.11314 -0.0043226 -10.6375 0.618397 -0.0019016 -0.578174 -0.011386 12.9701 -12.0805 -1.11568 -2.65358 17.4156 1.27886 -0.0696216 -6.08683 0.220034 -0.00113452 0.0300982 0.00293805
1487 2481.46 942.381 -90.5969 4.81213 1.141 0.00585359 0.0694404 0.112269 -0.000262093 -0.0550641 0.0655025 -0.262755 1.71445 -0.430366 -0.443471 2.86146 -0.342903 -0.405307 -6.6067 -0.355481 -0.00147245 0.115648 0.00860873 -0.941538 -0.00756148 7.11024 36.9421 10.5364 -74.8753 17.9801 -2.13688 0.709007 -6.28869e-05 -0.00035665 -1.95741e-10 -8.8454e-10 -5.01652e-09 -1.27222e-14 4.25064 0.231611 9.78936 -16.3219 12.8341 58.5907 -29.7029 -5.55676 -1.51231 0.00296712 -0.0168274 4.3571e-07 -3.75964e-10 2.13211e-09 1.90833e-14 9.3995 6.42769 -3.93449 13.2479 7.04568 -3.86613 -0.000741006 0.00201356 0.000640307 11.3734 -5.79078 1.46684 -27.3223 8.3278 3.8823 -0.00693068 -11.0267 0.447011 -0.000717176 -0.663093 -0.0053381 16.8932 -13.6476 -0.716287 -7.15095 20.301 3.19423 -0.0517935 -9.67608 0.0465933 -0.00102016 0.0107274 0.000915337
1485.5 2482 942.167 -91.1466 4.73417 0.459 0.00314996 0.00103185 0.158807 0.00151299 0.0567659 0.0287742 0.259516 1.89591 -0.0802939 0.724105 3.08424 -0.0212818 0.597839 -6.35217 0.20192 -0.00143843 0.228289 0.00692215 -1.13874 -0.00866339 9.39786 38.7593 8.54398 -77.3833 17.2834 -1.96854 0.576429 -0.000447784 -0.00253951 -9.92352e-09 -1.14595e-09 -6.49901e-09 6.36111e-15 2.45547 0.13506 9.7888 -14.9148 12.7571 58.4004 -30.6911 -5.75187 -1.66406 0.00364191 -0.0206543 6.56427e-07 -8.11646e-10 4.6031e-09 -1.90833e-14 8.38318 8.22874 -3.60485 11.8173 8.35829 -3.58569 0.00127417 -0.0407061 0.00103028 13.9244 -4.86167 2.15464 -28.5716 7.34387 3.76259 -0.0150166 -12.8515 0.307146 0.000376146 -0.694064 0.000625767 21.2076 -15.4378 -0.488179 -12.7399 23.8096 6.12813 -0.0530779 -12.6795 0.0147899 -0.00144256 0.00825936 -0.000567619
1483.62 2483.34 940.728 -91.599 4.25321 -0.117 0.00012571 -0.0148126 0.17645 0.00222422 0.350259 -0.0627021 0.776408 2.19222 0.301281 1.90517 3.61308 0.333666 1.64826 -5.782 0.780814 -0.00041639 0.301996 0.00463818 -1.35657 -0.00191883 11.0481 38.1224 6.55455 -79.0136 17.2334 -1.96243 0.537225 -0.00123215 -0.00698789 -7.51378e-08 -5.67646e-10 -3.21927e-09 6.36111e-15 0.660661 0.0289464 8.48804 -13.6771 11.9192 59.4003 -31.7491 -5.89811 -1.77857 0.00234238 -0.0132843 2.71545e-07 -1.08742e-09 6.16703e-09 -1.27222e-14 7.31405 9.55704 -3.32073 10.2837 9.34186 -3.2598 0.00348758 -0.102792 0.000595301 15.5521 -3.72124 2.48795 -29.5024 6.78964 3.65374 -0.0297326 -16.0749 0.189503 0.00118148 -0.673629 0.00255685 25.0814 -17.4176 -0.658284 -19.2745 27.4539 9.98364 -0.0403108 -15.378 0.170256 -0.00161496 0.0184759 -0.00056435
1480.76 2484.23 939.096 -91.5869 3.45629 -0.57 -0.000914499 0.0227782 0.142276 0.00270042 0.804361 -0.191093 1.17876 2.60419 0.686241 2.84949 4.36114 0.673614 2.54804 -4.99226 1.31582 0.000608291 0.349769 0.00350494 -1.34329 0.0172576 11.6613 34.5945 5.14656 -79.7335 17.7599 -2.02681 0.629016 -0.00254475 -0.014432 -3.20492e-07 3.22986e-10 1.83175e-09 -6.36111e-15 -0.73571 -0.0416096 6.30886 -12.9564 10.5766 61.216 -32.5161 -5.98678 -1.77825 -0.00264552 0.0150035 3.46378e-07 3.72977e-10 -2.11532e-09 1.27222e-14 6.37215 10.1184 -3.01266 8.92419 9.79764 -2.89009 0.00665841 -0.193342 0.000252444 16.7461 -2.17725 2.58172 -30.6299 6.13913 3.35393 -0.0356815 -19.0794 0.0956796 0.00146763 -0.62182 0.00214098 27.2407 -19.2358 -1.29259 -25.5817 30.2031 14.0221 -0.00897169 -17.9699 0.278472 -0.00146402 0.0237553 0.000865523
